<svg width="150mm" height="150mm" viewBox="0 0 150 150" xmlns="http://www.w3.org/2000/svg"><path style="fill:#fff;stroke-width:2.6968;fill-opacity:1" d="M103.458 144.429c-8.227-4.453-10.468-7.398-11.71-15.392-2.968-19.105-6.44-66.053-6.482-87.668l-.043-21.843 19.998 35.092c29.016 50.917 29.742 51.487 23.357 18.345-1.97-10.22-4.369-29.182-5.331-42.136-1.202-16.17-2.983-24.678-5.683-27.14-3.204-2.922-.58-3.604 14.153-3.68 15.653-.078 17.612.47 14.566 4.101-7.804 9.3-6.774 73.196 1.818 112.835 2.281 10.525 2.502 15.457.692 15.457-1.463 0-4.699 2.2-7.192 4.889-2.493 2.689-4.982 4.345-5.532 3.68-.55-.665-8.603-17.107-17.894-36.539-14.873-31.102-16.973-34.273-17.55-26.497-.36 4.858 2.506 23.075 6.37 40.482 3.864 17.407 6.938 31.62 6.83 31.585-.106-.033-4.772-2.543-10.367-5.571zM22.077 133.12l-10.036-3.88 5.858-21.237c3.222-11.681 6.49-27.395 7.262-34.919 1.735-16.907 2.733-18.76 11.472-21.311 5.95-1.737 6.796-1.256 5.686 3.227-4.29 17.33-8.513 61.26-6.159 64.067.787.938 7.8.812 15.586-.278 18.707-2.621 21.214-8.263 15.214-34.246-5.147-22.291-14.293-39.696-22.911-43.601-5.005-2.268-8.176-1.639-14.637 2.905-7.36 5.175-9.387 5.403-18.83 2.12L0 42.288l16.65-9.8c12.98-7.642 18.583-9.428 25.421-8.105 12.372 2.393 24 11.759 32.28 26.001 5.928 10.194 7.262 15.849 8.033 34.064.836 19.713.357 22.567-4.91 29.295-13.406 17.12-38.513 25.903-55.397 19.378z"/></svg>